<svg xmlns="http://www.w3.org/2000/svg" width="70.766" height="35.043" viewBox="0 0 70.766 35.043"><g id="ball" transform="rotate(90 303.782 -233.015)" fill="#fff"><path id="Path_4" data-name="Path 4" d="M471.88 27.94a4.51 4.51 0 004.22-4.19c-.38-.01-.75-.07-1.13-.05a12.53 12.53 0 00-6.87 2.56 4.511 4.511 0 003.5 1.68 2.613 2.613 0 00.28 0m14.64 4.81a4.724 4.724 0 001.13-.23 12.465 12.465 0 00-5.15-6.79 4.5 4.5 0 003.74 7.02h.28m-19.31 3.07a4.542 4.542 0 00-3.18-4.04 11.866 11.866 0 00-.03 8.63 4.508 4.508 0 003.21-4.59m10.48 5.04l2.91-3.83a1.261 1.261 0 00.03-1.48l-2.74-3.95a1.258 1.258 0 00-1.4-.49l-4.6 1.39a1.255 1.255 0 00-.89 1.18l-.11 4.81a1.261 1.261 0 00.85 1.22l4.54 1.58a1.219 1.219 0 00.41.07 1.29 1.29 0 001-.5m9.93-.87a4.423 4.423 0 00-1.78-.25 4.515 4.515 0 00-4.24 4.79 4.47 4.47 0 00.76 2.22 12.563 12.563 0 005.26-6.76m-11.15 8.7c.19-.01.37-.07.56-.09a4.507 4.507 0 00-8.31-2.09 12.483 12.483 0 007.02 2.2c.24 0 .49 0 .73-.02m16.44-13.53a17.521 17.521 0 11-18.54-16.44c.36-.02.72-.03 1.07-.03a17.511 17.511 0 0117.47 16.47" transform="translate(78.898 -.898)"/><path id="Rectangle_6" data-name="Rectangle 6" transform="rotate(-45 352.553 -629.613)" d="M0 0h8.32v8.32H0z"/><path id="Rectangle_7" data-name="Rectangle 7" transform="rotate(-45 281.333 -659.113)" d="M0 0h8.32v8.32H0z"/></g></svg>