<svg width="146" height="136" fill="none" xmlns="http://www.w3.org/2000/svg"><g clip-path="url(#clip0_872_132593)"><path d="M48.667 135.004h-2.95v-135L146 47.959v3.256L48.667 4.668v130.336z" fill="url(#paint0_linear_872_132593)"/><path d="M142.475 55.22L53.344 12.015v122.988h7.951V85.046l81.18-29.827z" fill="#FF004C"/><path d="M11.633 63.683A36.996 36.996 0 010 52.117 36.899 36.899 0 0111.633 40.56a36.774 36.774 0 0111.624 11.558 36.899 36.899 0 01-11.624 11.566z" fill="url(#paint1_linear_872_132593)"/><path d="M28.87 72.696a24.551 24.551 0 01-7.752-7.708 24.551 24.551 0 017.752-7.708 24.551 24.551 0 017.753 7.708 24.551 24.551 0 01-7.753 7.708z" fill="#550065"/><path d="M29.077 46.426a14.79 14.79 0 01-4.654-4.627 14.79 14.79 0 014.654-4.628 14.768 14.768 0 014.647 4.628 14.768 14.768 0 01-4.647 4.627z" fill="#EEEEE4"/><path d="M75.642 107.113a31.386 31.386 0 013.142-13.619 31.763 31.763 0 0113.704 3.132 31.391 31.391 0 01-3.15 13.619 31.731 31.731 0 01-13.696-3.132z" fill="#550065"/><path d="M76.902 123.614a20.83 20.83 0 012.103-9.079c3.162.007 6.282.719 9.13 2.083a20.988 20.988 0 01-2.094 9.087 21.204 21.204 0 01-9.139-2.091z" fill="url(#paint2_linear_872_132593)"/><path d="M96.154 111.844a12.52 12.52 0 011.254-5.449c1.898.002 3.771.428 5.48 1.246a12.398 12.398 0 01-1.253 5.449 12.596 12.596 0 01-5.48-1.246z" fill="#EEEEE4"/></g><defs><linearGradient id="paint0_linear_872_132593" x1="15.778" y1="105.236" x2="109.15" y2="11.326" gradientUnits="userSpaceOnUse"><stop stop-color="#DFCE6D"/><stop offset=".5" stop-color="#967832"/><stop offset="1" stop-color="#DFCE6D"/></linearGradient><linearGradient id="paint1_linear_872_132593" x1="11.642" y1="63.69" x2="11.642" y2="40.561" gradientUnits="userSpaceOnUse"><stop stop-color="#967832"/><stop offset="1" stop-color="#DFCE6D"/></linearGradient><linearGradient id="paint2_linear_872_132593" x1="-1730.88" y1="3666.91" x2="-1885.49" y2="3631.18" gradientUnits="userSpaceOnUse"><stop stop-color="#967832"/><stop offset="1" stop-color="#DFCE6D"/></linearGradient><clipPath id="clip0_872_132593"><path fill="#fff" transform="translate(.001 .004)" d="M0 0h146v135H0z"/></clipPath></defs></svg>