<svg width="190" height="129" fill="none" xmlns="http://www.w3.org/2000/svg"><g clip-path="url(#clip0_872_132239)"><path d="M22.73.004h3.467v53.333h17.86v3.46H22.73V.005z" fill="url(#paint0_linear_872_132239)"/><path d="M129.611 112.631a53.778 53.778 0 01-23.649 10.957 53.815 53.815 0 01-26.03-1.448 53.742 53.742 0 01-22.284-13.511A53.611 53.611 0 0144.36 86.237h-3.613a57.07 57.07 0 0013.892 24.274 57.198 57.198 0 0023.77 14.781 57.291 57.291 0 0027.95 1.743 57.253 57.253 0 0025.428-11.713 57.373 57.373 0 0019.151-29.085h-3.614a53.907 53.907 0 01-17.712 26.394z" fill="url(#paint1_linear_872_132239)"/><path d="M.001.003v80.749h48.613a47.219 47.219 0 0016.407 27.236 47.36 47.36 0 0029.98 10.693 47.36 47.36 0 0029.98-10.693 47.216 47.216 0 0016.406-27.236h48.614V.003h-16.569v63.784H16.587V.003H0zm121.88 80.749a28.38 28.38 0 01-10.366 13.883 28.456 28.456 0 01-33.037 0 28.38 28.38 0 01-10.366-13.883h53.769z" fill="#FF004C"/><path d="M95.018 49.141a93.793 93.793 0 0018.093-18.928 93.98 93.98 0 00-18.093-18.92 94.466 94.466 0 00-18.094 18.92A94.285 94.285 0 0095.018 49.14z" fill="#FF004C"/><path d="M164.724 40.828a30.35 30.35 0 010 13.443 30.498 30.498 0 01-13.467 0 30.35 30.35 0 010-13.443 30.498 30.498 0 0113.467 0z" fill="url(#paint2_linear_872_132239)"/><path d="M157.609 27.972a15.16 15.16 0 010 6.722 15.248 15.248 0 01-6.733 0 15.19 15.19 0 010-6.722 15.251 15.251 0 016.733 0z" fill="#550065"/><path d="M144.975 41.312a15.19 15.19 0 010 6.722c-2.216.51-4.518.51-6.733 0a15.16 15.16 0 010-6.722 15.248 15.248 0 016.733 0z" fill="#EEEEE4"/><path d="M22.228 86.911c3.945-.89 8.04-.89 11.984 0 .893 3.936.893 8.02 0 11.956-3.943.9-8.04.9-11.984 0a27.027 27.027 0 010-11.956z" fill="#550065"/><path d="M8.675 91.124a18.009 18.009 0 017.981 0 17.92 17.92 0 010 7.968 18.009 18.009 0 01-7.98 0 17.921 17.921 0 010-7.968z" fill="url(#paint3_linear_872_132239)"/><path d="M22.176 104.845a10.914 10.914 0 014.792 0 10.872 10.872 0 010 4.784 10.68 10.68 0 01-4.792 0 10.872 10.872 0 010-4.784z" fill="#EEEEE4"/></g><defs><linearGradient id="paint0_linear_872_132239" x1="44.022" y1="17.79" x2="13.891" y2="47.972" gradientUnits="userSpaceOnUse"><stop stop-color="#DFCE6D"/><stop offset=".5" stop-color="#967832"/><stop offset="1" stop-color="#DFCE6D"/></linearGradient><linearGradient id="paint1_linear_872_132239" x1="-287920" y1="-4519.09" x2="-289904" y2="712.455" gradientUnits="userSpaceOnUse"><stop stop-color="#DFCE6D"/><stop offset=".5" stop-color="#967832"/><stop offset="1" stop-color="#DFCE6D"/></linearGradient><linearGradient id="paint2_linear_872_132239" x1="164.715" y1="40.81" x2="151.28" y2="54.268" gradientUnits="userSpaceOnUse"><stop stop-color="#967832"/><stop offset="1" stop-color="#DFCE6D"/></linearGradient><linearGradient id="paint3_linear_872_132239" x1="-13940.1" y1="-12055.6" x2="-13940.1" y2="-12146.5" gradientUnits="userSpaceOnUse"><stop stop-color="#967832"/><stop offset="1" stop-color="#DFCE6D"/></linearGradient><clipPath id="clip0_872_132239"><path fill="#fff" transform="rotate(-180 95 64.002)" d="M0 0h190v128H0z"/></clipPath></defs></svg>