<svg width="71" height="19" fill="none" xmlns="http://www.w3.org/2000/svg"><path d="M21.797 9.81l2.408 2.433 2.409-2.433-2.41-2.424-2.407 2.424zm-10.899 0l2.113 2.136 2.123-2.136-2.123-2.127-2.113 2.127zM0 9.81l1.846 1.857L3.69 9.81 1.846 7.952 0 9.81zm43.584 0l2.999 3.028L49.59 9.81l-3.007-3.02-3 3.019zm-10.899 0l2.723 2.73 2.703-2.73-2.703-2.722-2.723 2.722zm38.296-.52a9.036 9.036 0 00-1.8-4.902 8.945 8.945 0 00-4.203-3.068 8.887 8.887 0 00-5.188-.2 8.933 8.933 0 00-4.425 2.735 9.053 9.053 0 00-1.35 9.908 8.979 8.979 0 003.528 3.833 8.897 8.897 0 0011.203-1.798 9.036 9.036 0 002.236-6.508zm-6.967-5.722a6.383 6.383 0 013.452 2.703c-.335.234-.728.37-1.135.39a2.313 2.313 0 01-1.972-.929 2.347 2.347 0 01-.345-2.164zM57.02 13.59a6.406 6.406 0 01-1.31-3.53v-.575c.46.03.901.2 1.264.488.364.287.633.678.772 1.12a2.327 2.327 0 01-.745 2.497h.019zm-.277-7.43a6.363 6.363 0 013.46-2.647c.064.189.104.385.12.585a2.331 2.331 0 01-.58 1.678 2.3 2.3 0 01-1.588.774 2.231 2.231 0 01-1.44-.353l.028-.037zm5.721 9.9a6.366 6.366 0 01-2.63-.408 2.31 2.31 0 01.83-1.191 2.288 2.288 0 012.743 0c.396.297.687.714.829 1.19a6.231 6.231 0 01-1.8.447l.028-.037zm2.215-6.705l-.812 2.33a.632.632 0 01-.618.437l-2.455-.055a.625.625 0 01-.6-.455l-.71-2.369a.654.654 0 01.258-.715l2.012-1.412a.652.652 0 01.756 0l1.947 1.496a.641.641 0 01.194.78l.028-.037zm2.667 3.882a2.326 2.326 0 01-.246-3.731 2.29 2.29 0 011.316-.532c0 .093 0 .186.046.279a6.438 6.438 0 01-1.144 4.021l.028-.037z" fill="url(#paint0_linear_677_58960)"/><defs><linearGradient id="paint0_linear_677_58960" x1="70.997" y1="18.826" x2="61.118" y2="-16.343" gradientUnits="userSpaceOnUse"><stop stop-color="#AE9142"/><stop offset="1" stop-color="#DFCE6D"/></linearGradient></defs></svg>