<svg width="150" height="115" fill="none" xmlns="http://www.w3.org/2000/svg"><path d="M121.699 78.032a39.243 39.243 0 0112.322-12.302 39.347 39.347 0 0112.331 12.302 39.228 39.228 0 01-12.331 12.311 39.15 39.15 0 01-12.322-12.311z" fill="url(#paint0_linear_22_2439)"/><path d="M112.129 96.28a26.15 26.15 0 018.218-8.205 26.168 26.168 0 018.227 8.204 26.303 26.303 0 01-8.218 8.205 26.233 26.233 0 01-8.227-8.205z" fill="#550065"/><path d="M140.137 96.494a15.691 15.691 0 014.936-4.919 15.671 15.671 0 014.927 4.92 15.67 15.67 0 01-4.927 4.918 15.694 15.694 0 01-4.936-4.919z" fill="#FF004C"/><path d="M23.728 38.988a32.984 32.984 0 01-10.35 10.267A32.862 32.862 0 013.04 38.988a32.862 32.862 0 0110.34-10.323 32.983 32.983 0 0110.349 10.323z" fill="#550065"/><path d="M31.778 23.643a21.953 21.953 0 01-6.9 6.879 21.822 21.822 0 01-6.89-6.879 21.952 21.952 0 016.89-6.888 22.073 22.073 0 016.9 6.888z" fill="url(#paint1_linear_22_2439)"/><path d="M8.274 23.456a13.161 13.161 0 01-4.142 4.135A13.228 13.228 0 010 23.456a13.2 13.2 0 014.132-4.125 13.135 13.135 0 014.142 4.125zm12.59 33.95A246.455 246.455 0 0174.18 4.09a247.82 247.82 0 0153.312 53.313 246.459 246.459 0 01-53.316 53.315 245.438 245.438 0 01-53.312-53.312z" fill="#FF004C"/><path fill-rule="evenodd" clip-rule="evenodd" d="M77.25 45.313a6.563 6.563 0 111.883 4.6l-9.621 5.83a6.58 6.58 0 01.045 3.343l9.795 5.788a6.563 6.563 0 11-1.91 3.228l-9.794-5.788a6.563 6.563 0 11-.132-9.746l9.86-5.974a6.59 6.59 0 01-.126-1.282zm6.563-2.813a2.813 2.813 0 100 5.625 2.813 2.813 0 000-5.625zM63.186 54.688a2.813 2.813 0 100 5.625 2.813 2.813 0 000-5.626zm20.626 12.187a2.813 2.813 0 100 5.625 2.813 2.813 0 000-5.625z" fill="#fff"/><defs><linearGradient id="paint0_linear_22_2439" x1="121.743" y1="78.038" x2="146.394" y2="78.045" gradientUnits="userSpaceOnUse"><stop stop-color="#967832"/><stop offset="1" stop-color="#DFCE6D"/></linearGradient><linearGradient id="paint1_linear_22_2439" x1="24844.5" y1="5357.54" x2="24957.6" y2="5470.74" gradientUnits="userSpaceOnUse"><stop stop-color="#967832"/><stop offset="1" stop-color="#DFCE6D"/></linearGradient></defs></svg>